Coordinates
version=1
nRows=9
nColumns=24
inDegrees=yes

Units are S.I. units (second, meters, Newtons, ...)
Angles are in degrees.

endheader
time	pelvis_tilt	pelvis_list	pelvis_rotation	pelvis_tx	pelvis_ty	pelvis_tz	hip_flexion_r	hip_adduction_r	hip_rotation_r	knee_angle_r	ankle_angle_r	subtalar_angle_r	mtp_angle_r	hip_flexion_l	hip_adduction_l	hip_rotation_l	knee_angle_l	ankle_angle_l	subtalar_angle_l	mtp_angle_l	lumbar_extension	lumbar_bending	lumbar_rotation
      1.00500000	     18.46582599	      5.37124253	      1.08303877	     -0.54403131	      0.92195926	      0.26527985	      5.78349418	     -3.15644435	     -5.28868370	     -8.45654436	     12.25737428	      4.11284859	     44.85840060	    -35.08050614	      6.75838389	     -3.60169911	    -14.10023026	     28.88614499	     16.88773669	     18.60433073	    -34.37576961	     -3.85936030	      0.29614689
      1.01000000	     18.58430044	      5.32100687	      1.20941907	     -0.53644270	      0.92104395	      0.26545817	      5.76329944	     -3.02545981	     -5.02822670	     -9.39115331	     12.61048033	      4.42285559	     44.51274101	    -35.38944673	      6.53191804	     -3.51906904	    -14.72666193	     28.70189844	     17.00570246	     20.25600911	    -34.41825164	     -3.67714153	      0.16319633
      1.01500000	     18.67046754	      5.22878071	      1.37231466	     -0.52874657	      0.92012700	      0.26548523	      5.77722826	     -2.85378829	     -4.99640865	    -10.41194317	     12.52023932	      4.70806887	     45.01155692	    -35.63596459	      6.24310478	     -3.45688008	    -15.42912103	     28.62607780	     17.15900506	     20.97253683	    -34.39332364	     -3.43908193	      0.02331929
      1.02000000	     18.83654118	      5.25237678	      1.64966346	     -0.52132622	      0.91944975	      0.26533574	      5.76728912	     -2.80970748	     -5.24381208	    -11.56343536	     11.28501711	      4.52800095	     47.58513144	    -35.92686586	      6.01173661	     -3.04048260	    -16.15079358	     28.31572561	     17.00612424	     22.64716139	    -34.50596043	     -3.22856256	     -0.34175766
      1.02500000	     18.83819453	      5.05290177	      1.88675443	     -0.51387732	      0.91866094	      0.26529064	      5.90280002	     -2.50441752	     -5.26916655	    -12.56337532	      8.94317876	      3.49478498	     49.34216962	    -35.93555890	      5.58555941	     -2.99309051	    -17.07094680	     28.15291566	     17.16660340	     24.26671811	    -34.41802304	     -2.84558927	     -0.42559832
      1.03000000	     18.83411800	      4.85720307	      2.06382820	     -0.50666047	      0.91810164	      0.26527833	      6.10631643	     -2.23965385	     -5.21082425	    -13.66594953	      7.20569833	      2.46224184	     48.98293061	    -35.91022408	      5.23492048	     -2.73792766	    -17.99094189	     27.90118081	     16.99882534	     25.32243593	    -34.35295197	     -2.49613579	     -0.52927960
      1.03500000	     18.71990048	      4.76131876	      2.36869357	     -0.49953941	      0.91757339	      0.26496812	      6.51024105	     -2.21528565	     -5.53429496	    -14.95579639	      6.80680042	      2.43881673	     48.80970072	    -35.69544628	      4.94423529	     -2.19712902	    -19.01350881	     27.41787715	     16.56821517	     28.19785968	    -34.18489737	     -2.15769693	     -0.72712149
      1.04000000	     18.59913238	      4.63305852	      2.53588789	     -0.49241984	      0.91711545	      0.26485362	      6.96735640	     -2.14247061	     -5.54223268	    -16.31602666	      7.01669775	      2.45607633	     49.84200233	    -35.41195371	      4.70678363	     -1.80749478	    -20.14844950	     26.92797510	     16.16278541	     30.00752576	    -34.01104558	     -1.86983362	     -0.77464069
      1.04500000	     18.54433532	      4.48160133	      2.64422316	     -0.48525138	      0.91690938	      0.26482750	      7.33609549	     -2.04749921	     -5.56653712	    -17.67559078	      7.24219313	      2.31520368	     50.14487913	    -35.15033509	      4.48215953	     -1.50605910	    -21.34458142	     26.37861449	     15.71166971	     31.77196178	    -33.89268716	     -1.58187108	     -0.69992036
